<svg width="16" height="12" viewBox="0 0 16 12" fill="none" xmlns="http://www.w3.org/2000/svg">
<path d="M0 11.9999H16V0.868652H0V11.9999ZM11.8625 2.49166H13.5177V4.20993H11.8625V2.49166ZM11.8625 5.4129H13.5177V7.1312H11.8625V5.4129ZM11.8625 8.33416H13.5177V10.0524H11.8625V8.33416ZM8.73574 2.49166H10.391V4.20993H8.73574V2.49166ZM8.73574 5.4129H10.391V7.1312H8.73574V5.4129ZM8.73574 8.33416H10.391V10.0524H8.73574V8.33416ZM5.60897 2.49166H7.26423V4.20993H5.60897V2.49166ZM5.60897 5.4129H7.26423V7.1312H5.60897V5.4129ZM5.60897 8.33416H7.26423V10.0524H5.60897V8.33416ZM2.48226 2.49166H4.13749V4.20993H2.48226V2.49166ZM2.48226 5.4129H4.13749V7.1312H2.48226V5.4129ZM4.13749 8.33416V10.0524H2.48226V8.33416H4.13749Z" fill="#FAFAFA" fill-opacity="0.94"/>
</svg>
