<svg width="24" height="24" viewBox="0 0 24 24" fill="none" xmlns="http://www.w3.org/2000/svg">
<path d="M12 0C5.3828 0 0 5.38331 0 12C0 18.6167 5.3828 24 12 24C18.6172 24 24 18.6167 24 12C24 5.38331 18.6172 0 12 0ZM12 23C5.93456 23 0.999984 18.0654 0.999984 12C0.999984 5.93456 5.93456 0.999984 12 0.999984C18.0654 0.999984 23 5.93456 23 12C23 18.0654 18.0654 23 12 23Z" fill="#FAFAFA" fill-opacity="0.94"/>
<path d="M16.7705 11.5797L9.77053 7.07969C9.6172 6.97961 9.41897 6.97422 9.26077 7.06113C9.09961 7.14902 9 7.31702 9 7.50011V16.5001C9 16.6832 9.09961 16.8512 9.26077 16.9391C9.33497 16.9796 9.41798 17.0001 9.50002 17.0001C9.59377 17.0001 9.6885 16.9737 9.77053 16.9205L16.7705 12.4205C16.9131 12.3288 17 12.17 17 12.0001C17 11.8302 16.9131 11.6715 16.7705 11.5797Z" fill="#FAFAFA" fill-opacity="0.94"/>
</svg>
