<svg width="28" height="28" viewBox="0 0 28 28" fill="none" xmlns="http://www.w3.org/2000/svg">
<circle cx="14" cy="14" r="14" fill="#FAFAFA" fill-opacity="0.94"/>
<path d="M21.0536 6.32227H6.94636C6.61047 6.32227 6.32257 6.61017 6.32257 6.94606V21.0053C6.32257 21.3892 6.61047 21.6771 6.94636 21.6771H21.0056C21.3415 21.6771 21.6294 21.3892 21.6294 21.0533V6.94606C21.6774 6.61017 21.3895 6.32227 21.0536 6.32227ZM10.881 19.4219H8.57781V12.0803H10.881V19.4219ZM9.72943 11.0727C9.00967 11.0727 8.38588 10.4969 8.38588 9.72912C8.38588 9.00936 8.96168 8.38557 9.72943 8.38557C10.4492 8.38557 11.073 8.96138 11.073 9.72912C11.073 10.4969 10.4492 11.0727 9.72943 11.0727ZM19.4222 19.4219H17.1669V15.8711C17.1669 15.0073 17.1669 13.9517 15.9673 13.9517C14.7677 13.9517 14.6238 14.8634 14.6238 15.8231V19.4698H12.3685V12.0803H14.4798V13.088H14.5278C14.8157 12.5122 15.5835 11.8884 16.6871 11.8884C18.9903 11.8884 19.4222 13.4239 19.4222 15.3912V19.4219Z" fill="#272829"/>
</svg>
