<svg width="21" height="21" viewBox="0 0 21 21" fill="none" xmlns="http://www.w3.org/2000/svg">
<g clip-path="url(#clip0)">
<path d="M17.2939 8.89719C17.2939 11.3934 16.036 13.7218 14.5127 15.6185C12.9951 17.508 11.26 18.9118 10.4077 19.549C10.2618 19.658 10.074 19.658 9.92823 19.549C9.07588 18.9118 7.34077 17.508 5.8232 15.6185C4.29992 13.7218 3.04199 11.3934 3.04199 8.89719C3.04199 6.76298 3.65204 4.8203 4.83094 3.42036C6.00024 2.03181 7.76275 1.13574 10.1679 1.13574C12.5731 1.13574 14.3357 2.03181 15.505 3.42036C16.6839 4.8203 17.2939 6.76298 17.2939 8.89719Z" stroke="#FAFAFA" stroke-opacity="0.94" stroke-linecap="round" stroke-linejoin="round"/>
<path d="M10.1679 9.5327C11.2209 9.5327 12.0744 8.67914 12.0744 7.62622C12.0744 6.57329 11.2209 5.71973 10.1679 5.71973C9.11501 5.71973 8.26144 6.57329 8.26144 7.62622C8.26144 8.67914 9.11501 9.5327 10.1679 9.5327Z" fill="#FAFAFA" fill-opacity="0.94"/>
<path d="M11.0744 7.62622C11.0744 8.12686 10.6686 8.5327 10.1679 8.5327C9.66729 8.5327 9.26144 8.12686 9.26144 7.62622C9.26144 7.12558 9.66729 6.71973 10.1679 6.71973C10.6686 6.71973 11.0744 7.12558 11.0744 7.62622Z" stroke="#FAFAFA" stroke-opacity="0.94" stroke-width="2" stroke-linecap="round" stroke-linejoin="round"/>
</g>
<defs>
<clipPath id="clip0">
<rect width="20.3359" height="20.3359" fill="white"/>
</clipPath>
</defs>
</svg>
