<svg width="20" height="20" viewBox="0 0 20 20" fill="none" xmlns="http://www.w3.org/2000/svg">
<path d="M13.0175 12.1174L11.5504 13.9515C9.27831 12.6161 7.38482 10.7226 6.04937 8.45046L7.88348 6.98343C8.09834 6.81131 8.25018 6.57292 8.3153 6.30544C8.38043 6.03796 8.35518 5.75644 8.24349 5.50482L6.57202 1.74081C6.45217 1.47078 6.2403 1.25211 5.9742 1.12377C5.7081 0.995425 5.40507 0.965768 5.11914 1.04008L1.93692 1.86553C1.63994 1.94307 1.38172 2.12687 1.21122 2.38209C1.04071 2.63732 0.969766 2.94623 1.01183 3.25027C1.57026 7.22694 3.40815 10.9137 6.24767 13.7532C9.08718 16.5927 12.7739 18.4306 16.7506 18.989C17.0545 19.0309 17.3633 18.9599 17.6184 18.7894C17.8735 18.6189 18.0572 18.3608 18.1347 18.064L18.9602 14.8817C19.0342 14.5961 19.0044 14.2934 18.8762 14.0276C18.748 13.7618 18.5297 13.5501 18.2601 13.4301L14.4961 11.7587C14.2446 11.6468 13.9631 11.6214 13.6957 11.6863C13.4282 11.7512 13.1897 11.9028 13.0175 12.1174V12.1174Z" stroke="#FAFAFA" stroke-opacity="0.94" stroke-miterlimit="10" stroke-linecap="round" stroke-linejoin="round"/>
</svg>
