<svg width="12" height="16" viewBox="0 0 12 16" fill="none" xmlns="http://www.w3.org/2000/svg">
<path fill-rule="evenodd" clip-rule="evenodd" d="M12 6.80061C12 11.0496 8.04169 14.6083 6.55519 15.795C6.22768 16.0564 5.77232 16.0564 5.44481 15.795C3.95831 14.6083 0 11.0496 0 6.80061C0 3.13874 2 0 6 0C10 0 12 3.13874 12 6.80061ZM7.5 5.75436C7.5 6.6211 6.82843 7.32373 6 7.32373C5.17157 7.32373 4.5 6.6211 4.5 5.75436C4.5 4.88762 5.17157 4.18499 6 4.18499C6.82843 4.18499 7.5 4.88762 7.5 5.75436Z" fill="white"/>
</svg>
